<svg width="46" height="61" viewBox="0 0 46 61" fill="none" xmlns="http://www.w3.org/2000/svg">
<path d="M5.53906 22.3321C5.53906 32.0248 13.4245 39.9102 23.1172 39.9102C32.8099 39.9102 40.6954 32.0248 40.6954 22.3321C40.6954 12.6394 32.8099 4.75391 23.1172 4.75391C13.4245 4.75391 5.53906 12.6394 5.53906 22.3321ZM23.1172 7.09766C31.5176 7.09766 38.3516 13.9316 38.3516 22.3321C38.3516 30.7325 31.5176 37.5665 23.1172 37.5665C14.7168 37.5665 7.88282 30.7325 7.88282 22.3321C7.88282 13.9316 14.7168 7.09766 23.1172 7.09766Z" fill="black"/>
<path d="M12.2645 20.2428L16.8069 24.7184L15.7618 31.0085C15.6891 31.4466 15.8699 31.8879 16.2292 32.1488C16.5881 32.4097 17.0637 32.445 17.4579 32.2408L23.1172 29.302L28.7761 32.2408C29.167 32.4436 29.6426 32.412 30.0047 32.1488C30.3641 31.8879 30.5449 31.4466 30.4721 31.0085L29.427 24.7184L33.9694 20.2428C34.2857 19.9315 34.3988 19.4683 34.2615 19.0458C34.1241 18.6237 33.7602 18.3156 33.3212 18.2493L27.0173 17.3003L24.165 11.5961C23.9668 11.1992 23.5608 10.9484 23.1172 10.9484C22.6732 10.9484 22.2676 11.1992 22.0689 11.5961L19.2166 17.3003L12.9127 18.2493C12.4737 18.3152 12.1098 18.6237 11.9725 19.0458C11.8351 19.4683 11.9487 19.9315 12.2645 20.2428ZM20.1674 19.5273C20.5446 19.4706 20.8705 19.2339 21.0412 18.8929L23.1172 14.7405L25.1932 18.8929C25.3639 19.2339 25.6898 19.4706 26.067 19.5273L30.6552 20.2181L27.3488 23.4751C27.0773 23.7429 26.9528 24.126 27.0151 24.5023L27.7759 29.0804L23.6569 26.9417C23.488 26.8539 23.3026 26.8099 23.1172 26.8099C22.9318 26.8099 22.7464 26.8539 22.577 26.9417L18.4581 29.0804L19.2189 24.5023C19.2816 24.126 19.1571 23.7429 18.8852 23.4751L15.5792 20.2181L20.1674 19.5273Z" fill="black"/>
<path d="M24.2891 1.23828C24.2891 1.88556 23.7645 2.41016 23.1172 2.41016C22.4699 2.41016 21.9453 1.88556 21.9453 1.23828C21.9453 0.591004 22.4699 0.0664062 23.1172 0.0664062C23.7645 0.0664062 24.2891 0.591004 24.2891 1.23828Z" fill="black"/>
<path d="M17.5943 0.757208C7.73634 3.27354 0.851562 12.1455 0.851562 22.3321C0.851562 28.6589 3.51163 34.6203 8.18129 38.8423L1.12119 51.2848C0.894135 51.6853 0.922516 52.1815 1.19351 52.5532C1.46451 52.9254 1.92777 53.1044 2.37866 53.0106L10.3964 51.3457L13.2144 59.2865C13.3673 59.7186 13.7587 60.0212 14.2155 60.062C14.6724 60.1027 15.1105 59.8724 15.3371 59.4737L23.1172 45.7957L30.8969 59.4737C31.1066 59.8422 31.4966 60.0661 31.915 60.0661C31.9493 60.0661 31.9841 60.0647 32.0185 60.062C32.4753 60.0212 32.8667 59.7182 33.02 59.2865L35.8376 51.3457L43.8553 53.0106C44.3058 53.1039 44.7695 52.925 45.0405 52.5532C45.3119 52.1815 45.3399 51.6853 45.1128 51.2848L38.0527 38.8423C42.7224 34.6203 45.3824 28.6589 45.3824 22.3321C45.3824 12.1455 38.4977 3.27354 28.6402 0.757208C28.0126 0.59699 27.3749 0.975561 27.2147 1.6027C27.0545 2.22984 27.433 2.86796 28.0602 3.02818C36.8795 5.27946 43.0391 13.2176 43.0391 22.3321C43.0391 33.4251 34.0299 42.254 23.1172 42.254C12.1968 42.254 3.19532 33.4178 3.19532 22.3321C3.19532 13.2176 9.35454 5.27946 18.1738 3.02818C18.801 2.86796 19.1795 2.22984 19.0198 1.6027C18.8596 0.975561 18.2219 0.59699 17.5943 0.757208ZM14.5666 56.0886L12.2636 49.5988C12.0677 49.0468 11.4946 48.724 10.921 48.8431L4.43769 50.1894L10.0252 40.3419C13.2831 42.7104 17.1407 44.1533 21.152 44.5103L14.5666 56.0886ZM35.313 48.8431C34.7399 48.724 34.1663 49.0468 33.9704 49.5988L31.6678 56.0886L25.082 44.5103C29.0938 44.1533 32.9509 42.7104 36.2093 40.3419L41.7968 50.1894L35.313 48.8431Z" fill="black"/>
</svg>
