<svg width="66" height="66" viewBox="0 0 66 66" fill="none" xmlns="http://www.w3.org/2000/svg">
<path d="M43.4365 38.7708L33.874 24.9583C33.7762 24.817 33.6456 24.7014 33.4934 24.6216C33.3412 24.5418 33.1719 24.5001 33.0001 24.5001C32.8282 24.5001 32.6589 24.5418 32.5067 24.6216C32.3545 24.7014 32.2239 24.817 32.1262 24.9583L22.5637 38.7708C22.4698 38.9064 22.4088 39.0619 22.3855 39.2251C22.3622 39.3883 22.3773 39.5547 22.4295 39.7111L25.1508 47.8751H24.5001C24.2183 47.8751 23.948 47.987 23.7488 48.1863C23.5495 48.3856 23.4376 48.6558 23.4376 48.9376V52.1251C23.4376 52.4069 23.5495 52.6772 23.7488 52.8764C23.948 53.0757 24.2183 53.1876 24.5001 53.1876H25.5626V64.8751C25.5626 65.1569 25.6745 65.4272 25.8738 65.6264C26.073 65.8257 26.3433 65.9376 26.6251 65.9376H39.3751C39.6569 65.9376 39.9271 65.8257 40.1264 65.6264C40.3256 65.4272 40.4376 65.1569 40.4376 64.8751V53.1876H41.5001C41.7819 53.1876 42.0521 53.0757 42.2514 52.8764C42.4506 52.6772 42.5626 52.4069 42.5626 52.1251V48.9376C42.5626 48.6558 42.4506 48.3856 42.2514 48.1863C42.0521 47.987 41.7819 47.8751 41.5001 47.8751H40.8493L43.5706 39.7111C43.6228 39.5547 43.6379 39.3883 43.6146 39.2251C43.5913 39.0619 43.5303 38.9064 43.4365 38.7708ZM33.0001 37.2501C33.2102 37.2501 33.4156 37.3124 33.5904 37.4292C33.7651 37.5459 33.9013 37.7119 33.9817 37.906C34.0621 38.1002 34.0831 38.3138 34.0422 38.5199C34.0012 38.726 33.9 38.9153 33.7514 39.0639C33.6028 39.2125 33.4135 39.3137 33.2074 39.3547C33.0012 39.3957 32.7876 39.3746 32.5935 39.2942C32.3993 39.2138 32.2334 39.0776 32.1166 38.9029C31.9999 38.7282 31.9376 38.5227 31.9376 38.3126C31.938 38.0309 32.05 37.7609 32.2492 37.5617C32.4484 37.3626 32.7184 37.2505 33.0001 37.2501ZM38.3126 63.8126H27.6876V53.1876H38.3126V63.8126ZM40.4376 51.0626H25.5626V50.0001H40.4376V51.0626ZM38.6087 47.8751H27.3914L24.613 39.5438L31.9376 28.9639V35.1251C31.9381 35.1848 31.9435 35.2443 31.9535 35.3031C31.2419 35.5504 30.6409 36.0418 30.2571 36.6901C29.8734 37.3384 29.7316 38.1017 29.8571 38.8446C29.9825 39.5874 30.367 40.2618 30.9423 40.7482C31.5177 41.2345 32.2467 41.5014 33.0001 41.5014C33.7534 41.5014 34.4825 41.2345 35.0578 40.7482C35.6332 40.2618 36.0177 39.5874 36.1431 38.8446C36.2685 38.1017 36.1268 37.3384 35.743 36.6901C35.3592 36.0418 34.7582 35.5504 34.0466 35.3031C34.0567 35.2443 34.062 35.1848 34.0626 35.1251V28.9639L41.3872 39.5438L38.6087 47.8751Z" fill="black"/>
<path d="M64.875 11.75H60.625C60.3432 11.75 60.073 11.8619 59.8737 12.0612C59.6744 12.2605 59.5625 12.5307 59.5625 12.8125V13.8843C59.5185 13.8785 59.4741 13.8754 59.4297 13.875H36.1875V12.8125C36.1875 12.5307 36.0756 12.2605 35.8763 12.0612C35.677 11.8619 35.4068 11.75 35.125 11.75H34.0625V6.4375H35.125C35.4068 6.4375 35.677 6.32556 35.8763 6.1263C36.0756 5.92704 36.1875 5.65679 36.1875 5.375V1.125C36.1875 0.843207 36.0756 0.572956 35.8763 0.373699C35.677 0.174442 35.4068 0.0625 35.125 0.0625H30.875C30.5932 0.0625 30.323 0.174442 30.1237 0.373699C29.9244 0.572956 29.8125 0.843207 29.8125 1.125V5.375C29.8125 5.65679 29.9244 5.92704 30.1237 6.1263C30.323 6.32556 30.5932 6.4375 30.875 6.4375H31.9375V11.75H30.875C30.5932 11.75 30.323 11.8619 30.1237 12.0612C29.9244 12.2605 29.8125 12.5307 29.8125 12.8125V13.875H6.4375V12.8125C6.4375 12.5307 6.32556 12.2605 6.1263 12.0612C5.92704 11.8619 5.65679 11.75 5.375 11.75H1.125C0.843207 11.75 0.572956 11.8619 0.373699 12.0612C0.174442 12.2605 0.0625 12.5307 0.0625 12.8125V17.0625C0.0625 17.3443 0.174442 17.6145 0.373699 17.8138C0.572956 18.0131 0.843207 18.125 1.125 18.125H5.375C5.65679 18.125 5.92704 18.0131 6.1263 17.8138C6.32556 17.6145 6.4375 17.3443 6.4375 17.0625V16H24.0033C22.601 16.9278 21.3476 18.0629 20.2859 19.3668C17.5619 22.6698 16 26.8641 16 30.875H14.9375C14.6557 30.875 14.3855 30.9869 14.1862 31.1862C13.9869 31.3855 13.875 31.6557 13.875 31.9375V36.1875C13.875 36.4693 13.9869 36.7395 14.1862 36.9388C14.3855 37.1381 14.6557 37.25 14.9375 37.25H19.1875C19.4693 37.25 19.7395 37.1381 19.9388 36.9388C20.1381 36.7395 20.25 36.4693 20.25 36.1875V31.9375C20.25 31.6557 20.1381 31.3855 19.9388 31.1862C19.7395 30.9869 19.4693 30.875 19.1875 30.875H18.125C18.125 22.9966 24.1866 16.7823 29.8125 16.0691V17.0625C29.8125 17.3443 29.9244 17.6145 30.1237 17.8138C30.323 18.0131 30.5932 18.125 30.875 18.125H35.125C35.4068 18.125 35.677 18.0131 35.8763 17.8138C36.0756 17.6145 36.1875 17.3443 36.1875 17.0625V16.0651C39.0642 16.4064 41.8254 18.1303 44.054 21.0057C46.2228 23.8014 47.6001 27.4219 47.8378 30.875H46.8125C46.5307 30.875 46.2605 30.9869 46.0612 31.1862C45.8619 31.3855 45.75 31.6557 45.75 31.9375V36.1875C45.75 36.4693 45.8619 36.7395 46.0612 36.9388C46.2605 37.1381 46.5307 37.25 46.8125 37.25H51.0625C51.3443 37.25 51.6145 37.1381 51.8138 36.9388C52.0131 36.7395 52.125 36.4693 52.125 36.1875V31.9375C52.125 31.6557 52.0131 31.3855 51.8138 31.1862C51.6145 30.9869 51.3443 30.875 51.0625 30.875H49.9668C49.7344 26.9291 48.2216 22.9102 45.7341 19.7028C44.6401 18.2666 43.3216 17.0163 41.8294 16H59.4297C59.4741 15.9996 59.5185 15.9965 59.5625 15.9907V17.0625C59.5625 17.3443 59.6744 17.6145 59.8737 17.8138C60.073 18.0131 60.3432 18.125 60.625 18.125H64.875C65.1568 18.125 65.427 18.0131 65.6263 17.8138C65.8256 17.6145 65.9375 17.3443 65.9375 17.0625V12.8125C65.9375 12.5307 65.8256 12.2605 65.6263 12.0612C65.427 11.8619 65.1568 11.75 64.875 11.75ZM4.3125 16H2.1875V13.875H4.3125V16ZM18.125 35.125H16V33H18.125V35.125ZM31.9375 2.1875H34.0625V4.3125H31.9375V2.1875ZM34.0625 16H31.9375V13.875H34.0625V16ZM47.875 33H50V35.125H47.875V33ZM63.8125 16H61.6875V13.875H63.8125V16Z" fill="black"/>
</svg>
