<svg width="58" height="59" viewBox="0 0 58 59" fill="none" xmlns="http://www.w3.org/2000/svg">
<g clip-path="url(#clip0)">
<path d="M29 52.264C28.865 52.264 28.73 52.2341 28.6049 52.1734L0.511172 38.5796C0.0607658 38.3612 -0.127734 37.8193 0.0897658 37.3689C0.307266 36.9203 0.847391 36.7318 1.30052 36.9475L29 50.3509L56.6987 36.9484C57.1527 36.7327 57.6919 36.9212 57.9094 37.3698C58.1269 37.8202 57.9384 38.3621 57.488 38.5806L29.3943 52.1743C29.2701 52.2341 29.1351 52.264 29 52.264Z" fill="black"/>
<path d="M29 56.7954C28.865 56.7954 28.73 56.7655 28.6049 56.7048L0.511172 43.111C0.0607658 42.8926 -0.127734 42.3507 0.0897658 41.9003C0.307266 41.4508 0.847391 41.2623 1.30052 41.4789L29 54.8823L56.6987 41.4798C57.1527 41.2632 57.6919 41.4517 57.9094 41.9012C58.1269 42.3516 57.9384 42.8935 57.488 43.1119L29.3943 56.7057C29.2701 56.7655 29.1351 56.7954 29 56.7954Z" fill="black"/>
<path d="M0.90625 43.2015C0.405094 43.2015 0 42.7964 0 42.2953V37.764C0 37.2629 0.405094 36.8578 0.90625 36.8578C1.40741 36.8578 1.8125 37.2629 1.8125 37.764V42.2953C1.8125 42.7964 1.40741 43.2015 0.90625 43.2015Z" fill="black"/>
<path d="M57.0939 43.2015C56.5927 43.2015 56.1876 42.7964 56.1876 42.2953V37.764C56.1876 37.2629 56.5927 36.8578 57.0939 36.8578C57.595 36.8578 58.0001 37.2629 58.0001 37.764V42.2953C58.0001 42.7964 57.595 43.2015 57.0939 43.2015Z" fill="black"/>
<path d="M29 56.7953C28.4988 56.7953 28.0938 56.3902 28.0938 55.889V51.3578C28.0938 50.8566 28.4988 50.4515 29 50.4515C29.5012 50.4515 29.9062 50.8566 29.9062 51.3578V55.889C29.9062 56.3902 29.5012 56.7953 29 56.7953Z" fill="black"/>
<path d="M38.0897 50.1443C37.5886 50.1443 37.179 49.7392 37.179 49.238C37.179 48.7369 37.5795 48.3318 38.0798 48.3318H38.0897C38.59 48.3318 38.996 48.7369 38.996 49.238C38.996 49.7392 38.59 50.1443 38.0897 50.1443Z" fill="black"/>
<path d="M51.6835 43.5667C51.1823 43.5667 50.7727 43.1616 50.7727 42.6605C50.7727 42.1593 51.1733 41.7542 51.6735 41.7542H51.6835C52.1837 41.7542 52.5897 42.1593 52.5897 42.6605C52.5897 43.1616 52.1837 43.5667 51.6835 43.5667Z" fill="black"/>
<path d="M47.1522 45.7589C46.6511 45.7589 46.2415 45.3538 46.2415 44.8526C46.2415 44.3515 46.642 43.9464 47.1423 43.9464H47.1522C47.6525 43.9464 48.0585 44.3515 48.0585 44.8526C48.0585 45.3538 47.6525 45.7589 47.1522 45.7589Z" fill="black"/>
<path d="M42.621 47.9521C42.1198 47.9521 41.7102 47.547 41.7102 47.0458C41.7102 46.5447 42.1108 46.1396 42.611 46.1396H42.621C43.1212 46.1396 43.5272 46.5447 43.5272 47.0458C43.5272 47.547 43.1212 47.9521 42.621 47.9521Z" fill="black"/>
<path d="M33.5585 52.3375C33.0573 52.3375 32.6477 51.9324 32.6477 51.4312C32.6477 50.9301 33.0483 50.525 33.5485 50.525H33.5585C34.0587 50.525 34.4647 50.9301 34.4647 51.4312C34.4647 51.9324 34.0587 52.3375 33.5585 52.3375Z" fill="black"/>
<path d="M19.9647 50.1443C19.4636 50.1443 19.054 49.7392 19.054 49.238C19.054 48.7369 19.4545 48.3318 19.9548 48.3318H19.9647C20.465 48.3318 20.871 48.7369 20.871 49.238C20.871 49.7392 20.465 50.1443 19.9647 50.1443Z" fill="black"/>
<path d="M6.37099 43.5667C5.86983 43.5667 5.46021 43.1616 5.46021 42.6605C5.46021 42.1593 5.86077 41.7542 6.36102 41.7542H6.37099C6.87124 41.7542 7.27724 42.1593 7.27724 42.6605C7.27724 43.1616 6.87124 43.5667 6.37099 43.5667Z" fill="black"/>
<path d="M10.9022 45.7589C10.4011 45.7589 9.99146 45.3538 9.99146 44.8526C9.99146 44.3515 10.392 43.9464 10.8923 43.9464H10.9022C11.4025 43.9464 11.8085 44.3515 11.8085 44.8526C11.8085 45.3538 11.4025 45.7589 10.9022 45.7589Z" fill="black"/>
<path d="M15.4335 47.9521C14.9323 47.9521 14.5227 47.547 14.5227 47.0458C14.5227 46.5447 14.9233 46.1396 15.4235 46.1396H15.4335C15.9337 46.1396 16.3397 46.5447 16.3397 47.0458C16.3397 47.547 15.9337 47.9521 15.4335 47.9521Z" fill="black"/>
<path d="M24.496 52.3375C23.9948 52.3375 23.5852 51.9324 23.5852 51.4312C23.5852 50.9301 23.9858 50.525 24.486 50.525H24.496C24.9962 50.525 25.4022 50.9301 25.4022 51.4312C25.4022 51.9324 24.9962 52.3375 24.496 52.3375Z" fill="black"/>
<path d="M16.2065 31.269C15.8693 31.269 15.5458 31.0805 15.3899 30.7579C15.1724 30.3075 15.3609 29.7646 15.8113 29.5471L19.5433 27.7419C19.9982 27.5253 20.5365 27.7138 20.754 28.1633C20.9715 28.6137 20.783 29.1565 20.3326 29.374L16.6007 31.1793C16.4729 31.24 16.3379 31.269 16.2065 31.269Z" fill="black"/>
<path d="M0.907152 38.6703C0.570027 38.6703 0.246495 38.4818 0.0906203 38.1592C-0.12688 37.7088 0.0616203 37.1659 0.512027 36.9484L10.8397 31.9523C11.2946 31.7366 11.8329 31.9251 12.0504 32.3737C12.2679 32.8241 12.0794 33.3669 11.629 33.5844L1.30137 38.5797C1.17359 38.6413 1.03856 38.6703 0.907152 38.6703Z" fill="black"/>
<path d="M41.7899 31.2662C41.6576 31.2662 41.5235 31.2372 41.3957 31.1755L37.6683 29.3721C37.2179 29.1537 37.0294 28.6118 37.2469 28.1613C37.4653 27.7128 38.0054 27.5243 38.4576 27.7399L42.185 29.5434C42.6354 29.7618 42.8239 30.3037 42.6064 30.7541C42.4506 31.0777 42.127 31.2662 41.7899 31.2662Z" fill="black"/>
<path d="M57.0929 38.6703C56.9605 38.6703 56.8264 38.6413 56.6986 38.5797L46.3692 33.5817C45.9188 33.3633 45.7303 32.8213 45.9478 32.3709C46.1662 31.9214 46.7063 31.7329 47.1585 31.9495L57.488 36.9475C57.9384 37.1659 58.1269 37.7079 57.9094 38.1583C57.7535 38.4818 57.43 38.6703 57.0929 38.6703Z" fill="black"/>
<path d="M29.0001 43.2032C28.8614 43.2032 28.7219 43.1715 28.595 43.1081L19.5325 38.5759C19.0848 38.3521 18.9036 37.8074 19.1274 37.3597C19.3522 36.912 19.8959 36.7326 20.3436 36.9546L29.0001 41.2838L37.6575 36.9546C38.1052 36.7326 38.6499 36.912 38.8737 37.3597C39.0975 37.8074 38.9163 38.3521 38.4686 38.5759L29.4061 43.1081C29.2783 43.1715 29.1388 43.2032 29.0001 43.2032Z" fill="black"/>
<path d="M29.0001 12.3845C28.8614 12.3845 28.7219 12.3527 28.595 12.2893L19.5325 7.75715C19.0848 7.5333 18.9036 6.98865 19.1274 6.54096C19.3522 6.09327 19.8959 5.91384 20.3436 6.13587L29.0001 10.465L37.6575 6.13587C38.1052 5.91384 38.6499 6.09327 38.8737 6.54096C39.0975 6.98865 38.9163 7.5333 38.4686 7.75715L29.4061 12.2893C29.2783 12.3527 29.1388 12.3845 29.0001 12.3845Z" fill="black"/>
<path d="M38.0616 7.85324C37.9257 7.85324 37.787 7.82243 37.6574 7.75808L29 3.42802L20.3426 7.75718C19.8949 7.97921 19.3512 7.79977 19.1264 7.35208C18.9026 6.9044 19.0838 6.35974 19.5315 6.1359L28.594 1.60374C28.8487 1.47596 29.1496 1.47596 29.4051 1.60374L38.4676 6.1359C38.9153 6.35974 39.0966 6.9044 38.8727 7.35208C38.7141 7.67018 38.3942 7.85324 38.0616 7.85324Z" fill="black"/>
<path d="M29 43.2033C28.4988 43.2033 28.0938 42.7982 28.0938 42.2971V11.4773C28.0938 10.9762 28.4988 10.5711 29 10.5711C29.5012 10.5711 29.9062 10.9762 29.9062 11.4773V42.2971C29.9062 42.7982 29.5012 43.2033 29 43.2033Z" fill="black"/>
<path d="M38.0625 38.6711C37.5613 38.6711 37.1562 38.266 37.1562 37.7649V6.94513C37.1562 6.44397 37.5613 6.03888 38.0625 6.03888C38.5637 6.03888 38.9688 6.44397 38.9688 6.94513V37.7649C38.9688 38.266 38.5637 38.6711 38.0625 38.6711Z" fill="black"/>
<path d="M19.9375 38.6711C19.4363 38.6711 19.0312 38.266 19.0312 37.7649V6.94513C19.0312 6.44397 19.4363 6.03888 19.9375 6.03888C20.4387 6.03888 20.8438 6.44397 20.8438 6.94513V37.7649C20.8438 38.266 20.4387 38.6711 19.9375 38.6711Z" fill="black"/>
<path d="M26.2795 37.3083C26.1436 37.3083 26.0049 37.2775 25.8753 37.2131L22.2494 35.3997C21.8017 35.1759 21.6205 34.6312 21.8443 34.1835C22.0691 33.7358 22.6128 33.5564 23.0605 33.7784L26.6864 35.5918C27.1341 35.8157 27.3154 36.3603 27.0915 36.808C26.932 37.1252 26.6121 37.3083 26.2795 37.3083Z" fill="black"/>
<path d="M26.2795 33.6833C26.1436 33.6833 26.0049 33.6525 25.8753 33.5881L22.2494 31.7747C21.8017 31.5509 21.6205 31.0062 21.8443 30.5585C22.0691 30.1108 22.6128 29.9314 23.0605 30.1534L26.6864 31.9668C27.1341 32.1907 27.3154 32.7353 27.0915 33.183C26.932 33.5002 26.6121 33.6833 26.2795 33.6833Z" fill="black"/>
<path d="M26.2795 30.0582C26.1436 30.0582 26.0049 30.0274 25.8753 29.963L22.2494 28.1496C21.8017 27.9258 21.6205 27.3811 21.8443 26.9334C22.0691 26.4857 22.6128 26.3054 23.0605 26.5283L26.6864 28.3417C27.1341 28.5656 27.3154 29.1102 27.0915 29.5579C26.932 29.8751 26.6121 30.0582 26.2795 30.0582Z" fill="black"/>
<path d="M26.2795 26.4332C26.1436 26.4332 26.0049 26.4024 25.8753 26.3381L22.2494 24.5246C21.8017 24.3008 21.6205 23.7561 21.8443 23.3085C22.0691 22.8599 22.6128 22.6813 23.0605 22.9034L26.6864 24.7168C27.1341 24.9406 27.3154 25.4853 27.0915 25.933C26.932 26.2501 26.6121 26.4332 26.2795 26.4332Z" fill="black"/>
<path d="M26.2795 22.8083C26.1436 22.8083 26.0049 22.7774 25.8753 22.7131L22.2494 20.8997C21.8017 20.6758 21.6205 20.1312 21.8443 19.6835C22.0691 19.2358 22.6128 19.0564 23.0605 19.2784L26.6864 21.0918C27.1341 21.3157 27.3154 21.8603 27.0915 22.308C26.932 22.6252 26.6121 22.8083 26.2795 22.8083Z" fill="black"/>
<path d="M26.2795 19.1832C26.1436 19.1832 26.0049 19.1523 25.8753 19.088L22.2494 17.2746C21.8017 17.0507 21.6205 16.5061 21.8443 16.0584C22.0691 15.6107 22.6128 15.4304 23.0605 15.6533L26.6864 17.4667C27.1341 17.6906 27.3154 18.2352 27.0915 18.6829C26.932 19.0001 26.6121 19.1832 26.2795 19.1832Z" fill="black"/>
<path d="M26.2795 15.5582C26.1436 15.5582 26.0049 15.5274 25.8753 15.463L22.2494 13.6496C21.8017 13.4258 21.6205 12.8811 21.8443 12.4334C22.0691 11.9857 22.6128 11.8054 23.0605 12.0283L26.6864 13.8417C27.1341 14.0656 27.3154 14.6102 27.0915 15.0579C26.932 15.3751 26.6121 15.5582 26.2795 15.5582Z" fill="black"/>
<path d="M31.7207 37.3082C31.3881 37.3082 31.0682 37.1251 30.9087 36.8071C30.6848 36.3594 30.8661 35.8147 31.3138 35.5909L34.9397 33.7775C35.3874 33.5554 35.932 33.7349 36.1559 34.1826C36.3797 34.6302 36.1984 35.1749 35.7508 35.3987L32.1249 37.2122C31.9953 37.2774 31.8566 37.3082 31.7207 37.3082Z" fill="black"/>
<path d="M31.7207 33.6832C31.3881 33.6832 31.0682 33.5001 30.9087 33.182C30.6848 32.7343 30.8661 32.1897 31.3138 31.9658L34.9397 30.1524C35.3874 29.9304 35.932 30.1098 36.1559 30.5575C36.3797 31.0052 36.1984 31.5499 35.7508 31.7737L32.1249 33.5871C31.9953 33.6524 31.8566 33.6832 31.7207 33.6832Z" fill="black"/>
<path d="M31.7207 30.0581C31.3881 30.0581 31.0682 29.8751 30.9087 29.557C30.6848 29.1093 30.8661 28.5646 31.3138 28.3408L34.9397 26.5274C35.3874 26.3044 35.932 26.4848 36.1559 26.9325C36.3797 27.3802 36.1984 27.9248 35.7508 28.1487L32.1249 29.9621C31.9953 30.0273 31.8566 30.0581 31.7207 30.0581Z" fill="black"/>
<path d="M31.7207 26.4332C31.3881 26.4332 31.0682 26.2501 30.9087 25.932C30.6848 25.4844 30.8661 24.9397 31.3138 24.7159L34.9397 22.9024C35.3874 22.6804 35.932 22.8589 36.1559 23.3075C36.3797 23.7552 36.1984 24.2999 35.7508 24.5237L32.1249 26.3371C31.9953 26.4024 31.8566 26.4332 31.7207 26.4332Z" fill="black"/>
<path d="M31.7207 22.8082C31.3881 22.8082 31.0682 22.6252 30.9087 22.3071C30.6848 21.8594 30.8661 21.3147 31.3138 21.0909L34.9397 19.2775C35.3874 19.0554 35.932 19.2349 36.1559 19.6826C36.3797 20.1302 36.1984 20.6749 35.7508 20.8987L32.1249 22.7121C31.9953 22.7774 31.8566 22.8082 31.7207 22.8082Z" fill="black"/>
<path d="M31.7207 19.1831C31.3881 19.1831 31.0682 19.0001 30.9087 18.682C30.6848 18.2343 30.8661 17.6896 31.3138 17.4658L34.9397 15.6524C35.3874 15.4295 35.932 15.6098 36.1559 16.0575C36.3797 16.5052 36.1984 17.0498 35.7508 17.2737L32.1249 19.0871C31.9953 19.1523 31.8566 19.1831 31.7207 19.1831Z" fill="black"/>
<path d="M31.7207 15.5581C31.3881 15.5581 31.0682 15.3751 30.9087 15.057C30.6848 14.6093 30.8661 14.0646 31.3138 13.8408L34.9397 12.0274C35.3874 11.8045 35.932 11.9848 36.1559 12.4325C36.3797 12.8802 36.1984 13.4248 35.7508 13.6487L32.1249 15.4621C31.9953 15.5273 31.8566 15.5581 31.7207 15.5581Z" fill="black"/>
<path d="M44.4062 35.0425C42.4071 35.0425 40.7812 33.4167 40.7812 31.4175C40.7812 30.3835 41.8252 24.1639 44.4062 24.1639C46.9872 24.1639 48.0312 30.3835 48.0312 31.4175C48.0312 33.4167 46.4054 35.0425 44.4062 35.0425ZM44.4062 25.9963C43.6903 26.4358 42.5938 29.9231 42.5938 31.4175C42.5938 32.4171 43.4067 33.23 44.4062 33.23C45.4058 33.23 46.2188 32.4171 46.2188 31.4175C46.2188 29.9231 45.1222 26.4358 44.4062 25.9963Z" fill="black"/>
<path d="M44.4064 38.6648C43.9052 38.6648 43.5001 38.2597 43.5001 37.7585V31.4175C43.5001 30.9163 43.9052 30.5112 44.4064 30.5112C44.9075 30.5112 45.3126 30.9163 45.3126 31.4175V37.7585C45.3126 38.2597 44.9075 38.6648 44.4064 38.6648Z" fill="black"/>
<path d="M13.5938 35.0425C11.5946 35.0425 9.96875 33.4167 9.96875 31.4175C9.96875 30.3835 11.0127 24.1639 13.5938 24.1639C16.1747 24.1639 17.2188 30.3835 17.2188 31.4175C17.2188 33.4167 15.5929 35.0425 13.5938 35.0425ZM13.5938 25.9963C12.8778 26.4358 11.7812 29.9231 11.7812 31.4175C11.7812 32.4171 12.5942 33.23 13.5938 33.23C14.5933 33.23 15.4062 32.4171 15.4062 31.4175C15.4062 29.9231 14.3097 26.4358 13.5938 25.9963Z" fill="black"/>
<path d="M13.5938 38.6648C13.0926 38.6648 12.6875 38.2597 12.6875 37.7585V31.4175C12.6875 30.9163 13.0926 30.5112 13.5938 30.5112C14.0949 30.5112 14.5 30.9163 14.5 31.4175V37.7585C14.5 38.2597 14.0949 38.6648 13.5938 38.6648Z" fill="black"/>
</g>
<defs>
<clipPath id="clip0">
<rect width="58" height="58" fill="white" transform="translate(0 0.151855)"/>
</clipPath>
</defs>
</svg>
