<svg width="24" height="25" viewBox="0 0 24 25" fill="none" xmlns="http://www.w3.org/2000/svg">
<path d="M22.54 6.71834C22.4212 6.24375 22.1792 5.80891 21.8386 5.45775C21.498 5.10658 21.0707 4.85152 20.6 4.71834C18.88 4.29834 12 4.29834 12 4.29834C12 4.29834 5.11996 4.29834 3.39996 4.75834C2.92921 4.89152 2.50194 5.14658 2.16131 5.49775C1.82068 5.84891 1.57875 6.28375 1.45996 6.75834C1.14518 8.5039 0.991197 10.2746 0.999961 12.0483C0.988741 13.8354 1.14273 15.6196 1.45996 17.3783C1.59092 17.8382 1.83827 18.2565 2.17811 18.5928C2.51794 18.9292 2.93878 19.1722 3.39996 19.2983C5.11996 19.7583 12 19.7583 12 19.7583C12 19.7583 18.88 19.7583 20.6 19.2983C21.0707 19.1652 21.498 18.9101 21.8386 18.5589C22.1792 18.2078 22.4212 17.7729 22.54 17.2983C22.8523 15.5659 23.0063 13.8087 23 12.0483C23.0112 10.2613 22.8572 8.47704 22.54 6.71834V6.71834Z" stroke="black" stroke-width="2" stroke-linecap="round" stroke-linejoin="round"/>
<path d="M9.75 15.3183L15.5 12.0483L9.75 8.77832V15.3183Z" fill="black"/>
</svg>
