<svg width="24" height="25" viewBox="0 0 24 25" fill="none" xmlns="http://www.w3.org/2000/svg">
<path d="M17 2.29834H7C4.23858 2.29834 2 4.53692 2 7.29834V17.2983C2 20.0598 4.23858 22.2983 7 22.2983H17C19.7614 22.2983 22 20.0598 22 17.2983V7.29834C22 4.53692 19.7614 2.29834 17 2.29834Z" stroke="black" stroke-width="2" stroke-linecap="round" stroke-linejoin="round"/>
<path d="M16 11.6684C16.1234 12.5006 15.9812 13.3506 15.5937 14.0974C15.2062 14.8442 14.5931 15.4498 13.8416 15.8281C13.0901 16.2063 12.2384 16.338 11.4077 16.2043C10.5771 16.0707 9.80971 15.6785 9.21479 15.0836C8.61987 14.4886 8.22768 13.7213 8.09402 12.8906C7.96035 12.0599 8.09202 11.2083 8.47028 10.4568C8.84854 9.70525 9.45414 9.09214 10.2009 8.70464C10.9477 8.31714 11.7977 8.17499 12.63 8.2984C13.4789 8.42428 14.2648 8.81986 14.8716 9.4267C15.4785 10.0335 15.8741 10.8195 16 11.6684Z" stroke="black" stroke-width="2" stroke-linecap="round" stroke-linejoin="round"/>
<path d="M17.5 6.79834H17.51" stroke="black" stroke-width="2" stroke-linecap="round" stroke-linejoin="round"/>
</svg>
